<svg xmlns="http://www.w3.org/2000/svg" xml:space="preserve" width="655.359" height="655.359" style="shape-rendering:geometricPrecision;text-rendering:geometricPrecision;image-rendering:optimizeQuality;fill-rule:evenodd;clip-rule:evenodd" viewBox="0 0 6.827 6.827"><defs><style>.fil1{fill:#fffffe;fill-rule:nonzero}</style></defs><path style="fill:#424242" d="M0 0h6.827v6.827H0z"/><g id="Layer_x0020_1"><path class="fil1" d="M1.493 1.262H4.89c.059 0 .106.048.106.107v4.498a.107.107 0 0 1-.106.106H1.493a.107.107 0 0 1-.106-.106V1.369c0-.059.047-.107.106-.107zm3.29.214H1.6V5.76h3.183V1.476z"/><path class="fil1" d="M1.714 1.315a.107.107 0 0 0 .214 0v-.248h3.571v4.287h-.53a.107.107 0 0 0 0 .213h.637a.107.107 0 0 0 .106-.106V.96a.107.107 0 0 0-.106-.107H1.82a.107.107 0 0 0-.107.107v.355z"/><path class="fil1" d="M4.992 4.638a.107.107 0 0 0 0 .213h.614a.107.107 0 0 0 0-.213h-.614zM4.992 3.88a.107.107 0 0 0 0 .213h.614a.107.107 0 0 0 0-.214h-.614zM4.992 3.12a.107.107 0 0 0 0 .214h.614a.107.107 0 0 0 0-.213h-.614zM4.992 2.362a.107.107 0 0 0 0 .213h.614a.107.107 0 0 0 0-.213h-.614zM4.992 1.604a.107.107 0 0 0 0 .213h.614a.107.107 0 0 0 0-.213h-.614zM1.221 4.606a.107.107 0 0 0 0 .213h.614a.107.107 0 0 0 0-.213H1.22zM1.221 3.876a.107.107 0 0 0 0 .213h.614a.107.107 0 0 0 0-.213H1.22zM1.221 3.146a.107.107 0 0 0 0 .214h.614a.107.107 0 0 0 0-.214H1.22zM1.221 2.417a.107.107 0 0 0 0 .213h.614a.107.107 0 0 0 0-.213H1.22zM1.221 1.687a.107.107 0 0 0 0 .213h.614a.107.107 0 0 0 0-.213H1.22zM1.221 5.335a.107.107 0 0 0 0 .214h.614a.107.107 0 0 0 0-.214H1.22zM3.327 3.497c.203 0 .387.07.522.182.14.117.227.28.227.46 0 .378-.29.376-.664.374h-.169c-.375.002-.664.004-.664-.374 0-.18.086-.343.226-.46a.816.816 0 0 1 .522-.182zm.386.345a.603.603 0 0 0-.386-.131.603.603 0 0 0-.386.131.388.388 0 0 0-.149.297c0 .164.196.163.45.161H3.413c.253.002.45.003.45-.161a.388.388 0 0 0-.15-.297z"/><path class="fil1" d="M3.327 2.722a.426.426 0 0 1 .303.73.426.426 0 0 1-.73-.302.426.426 0 0 1 .427-.428zm.152.276a.214.214 0 0 0-.366.152.214.214 0 0 0 .366.151.214.214 0 0 0 0-.303z"/><path style="fill:none" d="M0 0h6.827v6.827H0z"/></g></svg>