<svg xmlns="http://www.w3.org/2000/svg" xml:space="preserve" width="2048" height="2048" style="shape-rendering:geometricPrecision;text-rendering:geometricPrecision;image-rendering:optimizeQuality;fill-rule:evenodd;clip-rule:evenodd"><defs><style>.fil1{fill:none}</style></defs><path style="fill:#424242" d="M0 0h2048v2048H0z"/><g id="Layer_x0020_1"><path class="fil1" d="M0 0h2048v2048H0z"/><g id="_253991952"><path id="_253992264" class="fil1" d="M255.999 255.999h1536v1536h-1536z"/><path id="_253992312" d="M678.052 1286.48c3.706 31.733 33.131 76.805 53.447 76.805 2.579 0 4.914-.656 6.819-1.836 14.94 27.082 33.359 51.104 53.92 70.048h153.645c18.699-19.127 34.783-43.936 46.261-71.42 2.816 1.845 5.551 3.208 8.62 3.208 20.324 0 44.565-45.072 44.81-76.805.236-32.24-2.579-59.068-24.013-59.068-2.334 0-5.132.489-7.955 1.127-1.863-93.354-26.121-218.763-169.293-218.763-133.322 0-152.492 125.173-143.602 218.36-1.897-.236-3.986-.725-5.848-.725-21.234 0-20.805 26.828-16.81 59.069zm806.071-105.575 9.319-59.523c3.287-21.46-10.219-38.979-30.054-38.979h-432.526c12.387 29.896 21.05 65.887 24.04 109.028 8.898 5.603 15.428 14.948 20.805 26.182h368.003c19.196 0 37.125-16.383 40.412-36.708zm-71.682 254.062c17.518 0 34.076-13.75 36.89-31.024l7.947-50.939c2.814-18.165-9.81-33.113-28.28-33.113h-346.954c-10.061 35.273-33.183 71.446-64.488 80.765-.891 1.678-2.097 3.287-2.997 4.896l.235 29.415h397.647zm-963.223-18.418L378.2 943.723c0-58.176 47.424-105.338 105.574-105.338h1076.03c58.343 0 105.522 47.161 105.522 105.338l-63.02 467.458h94.334l63.072-467.458c0-110.243-89.49-199.671-199.908-199.671H483.774c-110.234 0-199.898 89.428-199.898 199.67l71.009 472.827h94.332zm-110.46 61.89c-19.373 0-38.08 8.664-50.939 23.368-12.798 14.713-18.401 34.312-15.613 53.683L327.332 1792h1393.57l54.89-236.51c2.805-19.371-2.815-38.97-15.666-53.683-12.789-14.948-31.261-23.367-50.869-23.367h-1370.5zm1155.18-809.828 17.029-73.781c1.67-7.474 0-15.42-4.896-21.522-4.685-5.796-11.907-9.32-19.617-9.32H519.465c-7.885 0-15.114 3.524-20.09 9.809-4.894 6.093-6.52 14.222-4.659 21.933l17.992 72.88h981.23zm-96.92-162.536 13.811-74.97c1.373-7.238-.472-14.949-5.384-20.508-4.668-5.865-11.898-9.152-19.373-9.152h-766.89c-7.657 0-14.703 3.531-19.616 9.152-4.669 5.796-6.512 13.506-5.14 20.98l14.712 74.498h787.88zm-75.46-145.446 11.172-74.97c1.11-7.238-.384-14.949-4.353-20.508-3.776-5.865-9.625-9.152-15.665-9.152H692.544c-6.19 0-11.89 3.531-15.86 9.152-3.775 5.796-5.27 13.506-4.16 20.98l11.898 74.498h637.136z" style="fill:#fff"/></g></g></svg>