<svg xmlns="http://www.w3.org/2000/svg" xml:space="preserve" width="655.359" height="655.359" style="shape-rendering:geometricPrecision;text-rendering:geometricPrecision;image-rendering:optimizeQuality;fill-rule:evenodd;clip-rule:evenodd" viewBox="0 0 6.827 6.827"><defs><style>.fil1{fill:#fffffe;fill-rule:nonzero}</style></defs><path style="fill:#424242" d="M0 0h6.827v6.827H0z"/><g id="Layer_x0020_1"><path class="fil1" d="M1.315.853h4.552c.059 0 .106.048.106.107v4.903a.107.107 0 0 1-.106.107H1.315a.46.46 0 0 1-.462-.461V1.315a.46.46 0 0 1 .462-.462zm4.445.214H1.315a.247.247 0 0 0-.248.248v4.194a.247.247 0 0 0 .248.248H5.76v-4.69z"/><path class="fil1" d="M2.396 1.06a.107.107 0 0 0-.214 0v4.703a.107.107 0 0 0 .214 0V1.06z"/><path class="fil1" d="M.96 1.887a.107.107 0 0 0 0 .214h1.329a.107.107 0 0 0 0-.214H.96zM.96 2.832a.107.107 0 0 0 0 .214h1.329a.107.107 0 0 0 0-.214H.96zM.96 3.778a.107.107 0 0 0 0 .213h1.329a.107.107 0 0 0 0-.213H.96zM.96 4.723a.107.107 0 0 0 0 .213h1.329a.107.107 0 0 0 0-.213H.96zM4.796 3.975h.234a.798.798 0 0 1-.338.35 1.292 1.292 0 0 1-.637.146 1.48 1.48 0 0 1-.628-.123.83.83 0 0 1-.394-.362 1.086 1.086 0 0 1-.128-.522c0-.207.049-.399.146-.577a.966.966 0 0 1 .401-.401c.17-.09.364-.134.582-.134.185 0 .35.036.494.108a.764.764 0 0 1 .33.307.86.86 0 0 1-.059.943.67.67 0 0 1-.557.286.242.242 0 0 1-.137-.032.155.155 0 0 1-.062-.093.418.418 0 0 1-.3.125.403.403 0 0 1-.303-.126.466.466 0 0 1-.121-.336.82.82 0 0 1 .145-.472c.118-.174.269-.26.452-.26.131 0 .228.05.29.15l.028-.123h.29l-.166.79a.663.663 0 0 0-.015.097c0 .019.004.032.013.042a.04.04 0 0 0 .03.013c.035 0 .08-.02.137-.064a.608.608 0 0 0 .181-.224.654.654 0 0 0 .07-.293.593.593 0 0 0-.197-.453c-.13-.121-.313-.182-.547-.182a.985.985 0 0 0-.507.122.772.772 0 0 0-.313.342c-.07.147-.105.3-.105.46 0 .155.04.296.118.424.078.127.188.22.329.278.141.058.303.088.485.088.176 0 .327-.025.454-.074a.703.703 0 0 0 .305-.22zm-1.192-.453c0 .094.02.162.057.206a.178.178 0 0 0 .14.067c.043 0 .082-.01.119-.031a.296.296 0 0 0 .082-.07.574.574 0 0 0 .101-.196.776.776 0 0 0 .043-.24.284.284 0 0 0-.058-.191A.185.185 0 0 0 3.942 3a.256.256 0 0 0-.176.073.452.452 0 0 0-.121.21.849.849 0 0 0-.04.24z"/><path style="fill:none" d="M0 0h6.827v6.827H0z"/></g></svg>