<svg xmlns="http://www.w3.org/2000/svg" xml:space="preserve" width="655.359" height="655.359" style="shape-rendering:geometricPrecision;text-rendering:geometricPrecision;image-rendering:optimizeQuality;fill-rule:evenodd;clip-rule:evenodd" viewBox="0 0 6.827 6.827"><defs><style>.fil1{fill:#fffffe;fill-rule:nonzero}</style></defs><path style="fill:#424242" d="M0 0h6.827v6.827H0z"/><g id="Layer_x0020_1"><path class="fil1" d="M5.493 2.213c0 .575-.232 1.095-.609 1.471-.376.377-.896.61-1.47.61a2.074 2.074 0 0 1-1.471-.61 2.074 2.074 0 0 1-.61-1.47c0-.06.048-.107.107-.107h3.947c.059 0 .106.047.106.106zm-.76 1.32a1.86 1.86 0 0 0 .544-1.213H1.55a1.86 1.86 0 0 0 1.864 1.76 1.86 1.86 0 0 0 1.32-.547z"/><path class="fil1" d="M.668 5.745a.107.107 0 0 0 .21.03l.414-2.788H5.483l.465 2.79a.106.106 0 0 0 .21-.035L5.68 2.87a.107.107 0 0 0-.106-.096H1.201a.107.107 0 0 0-.107.091l.106.016-.106-.015-.426 2.88z"/><path class="fil1" d="M3.307 5.973a.107.107 0 0 0 .213 0V2.88a.107.107 0 0 0-.213 0v3.093zM2.773 1.405a.107.107 0 0 0 .119.177c.323-.215.219-.358.098-.525C2.936.983 2.875.9 2.928.794A.106.106 0 0 0 2.738.7c-.111.221-.01.36.08.483.05.07.094.13-.045.223zM3.307 1.831a.107.107 0 0 0 .118.178c.323-.215.22-.358.098-.525-.054-.075-.115-.158-.062-.263a.106.106 0 0 0-.19-.095c-.11.221-.01.36.08.483.05.07.094.13-.044.222z"/><path style="fill:none" d="M0 0h6.827v6.827H0z"/></g></svg>