<?xml version="1.0" ?>
<!-- Uploaded to: SVG Repo, www.svgrepo.com, Generator: SVG Repo Mixer Tools -->
<svg width="800px" height="800px" viewBox="0 0 108 108" id="Layeri" xmlns="http://www.w3.org/2000/svg" xmlns:xlink="http://www.w3.org/1999/xlink">
<defs>
<style>.cls-1{fill:none;}.cls-2{clip-path:url(#clip-path);}</style>
<clipPath id="clip-path">
<rect class="cls-1" height="104" width="104" x="2" y="2"/>
</clipPath>
</defs>
<title/>
<g class="cls-2">
<polygon points="22.21 64.17 22 64.17 22 62.26 22.21 64.17"/>
<polygon points="86 62.26 86 64.17 85.79 64.17 86 62.26"/>
<path d="M92,2.81a2,2,0,0,0-1.49-.68H82.23a2,2,0,0,0-1.94,1.62v0l0,.13L78.74,16.16l-17.36-1-.38,0V10.26a2,2,0,0,0-2-2H48a2,2,0,0,0-2,2v8c-3.6-3-6.25-5.11-6.75-5.49a2.63,2.63,0,0,0-.91-.43,1.84,1.84,0,0,0-.58,0l-.19,0-8.73.77L27.73,3.9a0,0,0,0,0,0,0,2,2,0,0,0-2-1.75H17.55a2,2,0,0,0-1.49.68,2.07,2.07,0,0,0-.5,1.59Q20.83,51.57,26.1,98.76a8,8,0,0,0,8,7.12H74a8,8,0,0,0,8-7.12Q87.18,51.58,92.45,4.39A2.07,2.07,0,0,0,92,2.81Zm-20.15,17,6.47.36L74.62,49.93h-5Zm-10.52-.58,6.53.36-2.23,30.3h-5ZM57,12.3l-.48,37.64h-5Q50.74,31.12,50,12.3ZM46.75,24.06l.72,25.88h-5L40.13,18.66ZM36,16.55l2.46,33.38h-5l-4-32.79ZM19.79,6.19H24l1.13,9.36a2.42,2.42,0,0,0,.09.39l4.17,34H24.7ZM82.22,60.11H47v4.07H81.76L77.93,98.29a4,4,0,0,1-4,3.52H34a4,4,0,0,1-4-3.52L26.24,64.17H35V60.11H25.78L25.1,54H82.9Zm1.09-10.17H78.63Q81.31,28.07,84,6.19h4.23Z"/>
<rect height="4.07" rx="1.96" ry="1.96" width="4" x="39" y="60.11"/>
</g>
</svg>