<svg xmlns="http://www.w3.org/2000/svg" xml:space="preserve" width="655.359" height="655.359" style="shape-rendering:geometricPrecision;text-rendering:geometricPrecision;image-rendering:optimizeQuality;fill-rule:evenodd;clip-rule:evenodd" viewBox="0 0 6.827 6.827"><defs><style>.fil2{fill:#fffffe;fill-rule:nonzero}</style></defs><g id="Layer_x0020_1"><rect width="6.827" height="6.827" rx=".853" ry=".853" style="fill:#424242"/><g id="_318673200"><path id="_318674256" d="M1.063 2.898H1.477l.023.086a.466.466 0 0 0 .187.258.59.59 0 0 0 .34.104.59.59 0 0 0 .34-.104.466.466 0 0 0 .186-.258l.023-.086h.515a.226.226 0 0 1 .146.056.182.182 0 0 1 .062.155l-.252 2.25a.21.21 0 0 1-.208.187H1.315a.208.208 0 0 1-.208-.186L.855 3.11a.182.182 0 0 1 .062-.156.221.221 0 0 1 .146-.056zm1.014 1.196a.378.378 0 0 1 .268.648.378.378 0 0 1-.648-.268.378.378 0 0 1 .38-.38z" style="fill:#fffffe"/><path id="_318673896" class="fil2" d="M1.82 2.402a.109.109 0 0 0-.216.029l.092.708a.455.455 0 0 0 .239.145l-.115-.882z"/><path id="_318674208" class="fil2" d="M2.307 2.43a.109.109 0 0 0-.217-.028l-.115.889a.514.514 0 0 0 .222-.016l.11-.844z"/><path id="_318674304" class="fil2" d="M2.631 2.436a.109.109 0 0 0-.214-.039l-.153.852a.436.436 0 0 0 .06-.036.352.352 0 0 0 .142-.194l.046-.17h.045l.074-.413z"/><path id="_318674232" class="fil2" d="M2.92 2.449a.109.109 0 0 0-.215-.039l-.079.439h.221l.073-.4z"/><path id="_318674328" class="fil2" d="M3.606 2.722h2.367l-.025.136-.498 2.638-.017.094H4.009l-.018-.094-.497-2.638-.026-.136h.138zm2.182.118H3.654l.108.573H5.68l.108-.573z"/><path id="_318673296" class="fil2" d="m5.066 2.812.337-1.485.02-.09h.527v.23h-.345l-.304 1.35z"/></g></g></svg>