<svg xmlns="http://www.w3.org/2000/svg" xml:space="preserve" width="655.359" height="655.359" style="shape-rendering:geometricPrecision;text-rendering:geometricPrecision;image-rendering:optimizeQuality;fill-rule:evenodd;clip-rule:evenodd" viewBox="0 0 6.827 6.827"><defs><style>.fil1{fill:none}.fil2{fill:#fffffe;fill-rule:nonzero}</style></defs><path style="fill:#424242" d="M0 0h6.827v6.827H0z"/><g id="Layer_x0020_1"><g id="_582493800"><path id="_582493608" class="fil1" d="M0 0h6.827v6.827H0z"/><path id="_582494088" class="fil1" d="M.853.853h5.12v5.12H.853z"/></g><g id="_582492864"><path id="_582493752" class="fil2" d="M2.05 2.263H3.43l.019.053a.546.546 0 0 0 1.025 0l.02-.053h1.479l-.022.098-.41 2.204h-.164l.396-2.142h-1.17a.707.707 0 0 1-1.046.286.707.707 0 0 1-.237-.286H2.15l.345 1.753H2.33L1.972 2.36l-.022-.098h.1z"/><path id="_582494112" class="fil2" d="M5.704 1.574H5.61l-.337.769h-.168l.004-.01.098-.981h-.104l-.1.99h-.158L4.95 1.27l.007-.076H5.381l-.008.082-.06.589.174-.394.024-.056h.431l-.046.105-.361.824h-.168l.337-.77zM3.89 1.509l.055 1.247a.621.621 0 0 1-.365-.13h.055L3.27 1.505h-.096l.347 1.07a.625.625 0 0 1-.148-.232h-.095l-.29-.894-.033-.104h.431l.018.055.36 1.111-.05-1.108-.003-.054h.433l.004.106.056 1.252a.62.62 0 0 1-.167.045l-.055-1.243h-.094zm.336 1.19.241-1.622.01-.065H4.902l-.014.095-.184 1.236H4.55a.618.618 0 0 1-.014.034l.18-1.205h-.101L4.407 2.57a.626.626 0 0 1-.182.129zM2.527 1.192h.34l.009.076.127 1.075h-.16l-.118-.991h-.103l.117.99h-.243l-.248-.768h-.096l.249.769h-.168l-.266-.825-.034-.104h.431l.018.056.148.46-.077-.654-.01-.084h.084z"/><g><path id="_582493128" class="fil2" d="m1.386 5.646 2.692.011a.222.222 0 0 0 .165-.075.274.274 0 0 0 .069-.183.095.095 0 0 0-.024-.064.078.078 0 0 0-.057-.027l-2.996-.012a.077.077 0 0 0-.057.026.095.095 0 0 0-.025.064c0 .071.026.136.068.183.043.048.101.077.165.077zm2.69.169-2.69-.012a.356.356 0 0 1-.265-.123.44.44 0 0 1-.11-.295c.001-.068.026-.13.067-.175a.212.212 0 0 1 .158-.072l2.996.013c.06 0 .116.028.157.073.04.045.065.107.064.176a.44.44 0 0 1-.11.293.356.356 0 0 1-.266.122zM1.013 5.385"/><path id="_582492696" class="fil2" d="M1.174 4.96a.085.085 0 0 0-.008.11c.026.033.07.037.1.01a.076.076 0 0 0 .005-.005c.073-.07.146-.136.203-.134.027.001.063.02.098.038.05.026.102.053.162.052.058 0 .107-.027.157-.053.035-.019.07-.038.097-.038.027 0 .063.019.099.037.05.026.1.052.157.053a.346.346 0 0 0 .158-.05.255.255 0 0 1 .099-.034c.027 0 .063.02.098.038.051.027.102.054.162.055.06 0 .113-.026.165-.052.037-.018.073-.036.1-.037a.24.24 0 0 1 .097.036c.047.024.094.048.149.05.056.001.105-.02.155-.043a.268.268 0 0 1 .102-.032.28.28 0 0 1 .1.038c.05.026.1.052.16.051.06 0 .112-.028.162-.056.032-.017.063-.034.085-.036.049-.003.128.09.162.128.09.062.142-.072.1-.111-.08-.09-.162-.18-.27-.174a.34.34 0 0 0-.14.052.255.255 0 0 1-.1.04c-.027 0-.064-.018-.1-.037a.37.37 0 0 0-.154-.052.359.359 0 0 0-.16.043.265.265 0 0 1-.098.031c-.026 0-.06-.018-.093-.035a.33.33 0 0 0-.16-.05c-.056 0-.105.026-.155.05a.273.273 0 0 1-.106.039c-.029 0-.065-.02-.102-.04a.35.35 0 0 0-.156-.053.342.342 0 0 0-.16.048c-.036.018-.071.036-.099.035a.26.26 0 0 1-.098-.037c-.05-.026-.1-.052-.16-.052-.058 0-.108.027-.158.053a.257.257 0 0 1-.097.038.259.259 0 0 1-.1-.038.364.364 0 0 0-.152-.052c-.111-.005-.206.082-.3.17a.073.073 0 0 0-.006.005l.046.06-.046-.06zm.092.119-.026-.033.026.033z"/><path id="_582492816" class="fil2" d="m4.315 4.502 1.23-.027v.176H4.465a.313.313 0 0 0-.039-.024.267.267 0 0 0 .03-.122v-.003l-.001-.027z"/><path id="_582493008" class="fil2" d="m1.392 4.076 2.691.01c.103.001.197.048.264.124a.44.44 0 0 1 .11.295c0 .044-.011.086-.03.122a.326.326 0 0 1 .095.073.377.377 0 0 1 .093.253.376.376 0 0 1-.095.252.305.305 0 0 1-.227.103l-3.12-.013a.305.305 0 0 1-.226-.105.377.377 0 0 1-.094-.253c0-.098.037-.187.095-.251a.324.324 0 0 1 .096-.073.268.268 0 0 1-.03-.122.44.44 0 0 1 .112-.294.356.356 0 0 1 .266-.121zm1.36.67-1.515-.007h-.062a.17.17 0 0 0-.127.058.21.21 0 0 0-.053.141c0 .055.02.105.052.141a.17.17 0 0 0 .127.06v.077-.078l3.12.013a.17.17 0 0 0 .126-.058.21.21 0 0 0 .053-.14v-.001a.21.21 0 0 0-.052-.14.17.17 0 0 0-.127-.06l-1.542-.006zm1.33-.502-2.691-.011a.222.222 0 0 0-.165.075.274.274 0 0 0-.07.183c0 .025.01.048.024.064a.077.077 0 0 0 .058.027l2.995.012c.023 0 .043-.01.058-.026a.095.095 0 0 0 .024-.064.274.274 0 0 0-.068-.183.222.222 0 0 0-.165-.077z"/></g></g></g></svg>